
<svg width="23" height="25" viewBox="0 0 23 25" fill="none" xmlns="http://www.w3.org/2000/svg">
<path d="M6.85938 24.875H9.95312C10.2367 24.875 10.4688 24.643 10.4688 24.3594V0.640625C10.4688 0.357031 10.2367 0.125 9.95312 0.125H6.85938C6.57578 0.125 6.34375 0.357031 6.34375 0.640625V24.3594C6.34375 24.643 6.57578 24.875 6.85938 24.875ZM0.671875 24.875H3.76562C4.04922 24.875 4.28125 24.643 4.28125 24.3594V15.0781C4.28125 14.7945 4.04922 14.5625 3.76562 14.5625H0.671875C0.388281 14.5625 0.15625 14.7945 0.15625 15.0781V24.3594C0.15625 24.643 0.388281 24.875 0.671875 24.875ZM13.0533 24.875H16.1342C16.4242 24.875 16.6562 24.643 16.6562 24.3529V10.9596C16.6562 10.6695 16.4242 10.4375 16.1342 10.4375H13.0533C12.7633 10.4375 12.5312 10.6695 12.5312 10.9596V24.3529C12.5312 24.643 12.7633 24.875 13.0533 24.875ZM18.7188 4.77207V24.3529C18.7188 24.643 18.9508 24.875 19.2408 24.875H22.3217C22.6117 24.875 22.8438 24.643 22.8438 24.3529V4.77207C22.8438 4.48203 22.6117 4.25 22.3217 4.25H19.2408C18.9508 4.25 18.7188 4.48203 18.7188 4.77207Z" fill="#4E6E5D"/>
</svg>
