<svg width="27" height="27" viewBox="0 0 27 27" fill="none" xmlns="http://www.w3.org/2000/svg">
<path d="M24.4506 7.98279H10.1678C8.81431 7.98279 7.71216 9.08494 7.71216 10.4385V20.3836C7.71216 21.7371 8.81431 22.8328 10.1678 22.8328H18.3405C18.5209 22.8328 18.7014 22.9101 18.8303 23.039L22.8909 26.7838C23.1165 27.0029 23.4903 26.9127 23.4903 26.5969V23.3355C23.4903 22.9488 23.7352 22.8263 24.1219 22.8263H24.1864C25.5399 22.8263 26.8999 21.7371 26.8999 20.3771V10.4385C26.9063 9.07849 25.8042 7.98279 24.4506 7.98279Z" fill="#A3A3A3"/>
<path d="M8.24062 6.40371H19.6746V2.19492C19.6746 1.03477 18.7336 0.09375 17.5734 0.09375H2.19492C1.03477 0.09375 0.09375 1.03477 0.09375 2.19492V12.8426C0.09375 14.0027 1.03477 14.9437 2.19492 14.9437H6.13301V8.50488C6.13945 7.34473 7.08047 6.40371 8.24062 6.40371Z" fill="#A3A3A3"/>
</svg>
