<svg width="24" height="24" viewBox="0 0 24 24" fill="none" xmlns="http://www.w3.org/2000/svg">
<path d="M18.9516 4.03125L9.48281 13.5C9.4125 13.5703 9.375 13.6641 9.375 13.7625V15.0047C9.375 15.2109 9.54375 15.375 9.74531 15.375H10.9781C11.0766 15.375 11.175 15.3375 11.2453 15.2672L20.7188 5.79844C20.8641 5.65312 20.8641 5.41875 20.7188 5.27344L19.4766 4.03125C19.3313 3.88594 19.0969 3.88594 18.9516 4.03125ZM22.2938 3.14062L21.6188 2.46562L21.6094 2.45625C21.4641 2.32969 21.2719 2.25 21.0703 2.25C20.8641 2.25 20.6719 2.32969 20.5266 2.46094L19.9969 2.99531C19.9266 3.07031 19.9266 3.1875 19.9969 3.25781L20.4844 3.74531L21.5016 4.7625C21.5766 4.8375 21.6937 4.8375 21.7687 4.7625L22.2984 4.23281C22.4297 4.0875 22.5047 3.9 22.5047 3.68906C22.5 3.48281 22.425 3.28594 22.2938 3.14062Z" fill="#4E6E5D"/>
<path d="M4.25195 6.25156H14.7861L8.40234 12.6353L8.36523 12.6734C8.13156 12.9072 7.99805 13.226 7.99805 13.5562V15.5016C7.99805 16.1901 8.55958 16.7513 9.24805 16.7516H11.1895C11.4783 16.7515 11.7584 16.6494 11.9805 16.4674L12.0723 16.3844L12.1094 16.3473L18.5029 9.96249V19.0035C18.5027 20.2458 17.4943 21.2543 16.252 21.2545H4.25195C3.00948 21.2545 2.00021 20.2459 2 19.0035V8.50351C2 7.33857 2.88677 6.37868 4.02148 6.26328L4.25195 6.25156Z" fill="#4E6E5D" stroke="#4E6E5D"/>
</svg>
