<svg width="25" height="25" viewBox="0 0 25 25" fill="none" xmlns="http://www.w3.org/2000/svg">
<path d="M4.73145 13.1983V17.7246C4.73145 17.8662 4.80469 17.9932 4.92676 18.0664L11.3721 21.7725C11.6309 21.9238 11.958 21.7334 11.958 21.4307V16.8506C11.958 16.709 11.8848 16.582 11.7627 16.5088L5.31738 12.8516C5.05371 12.71 4.73145 12.9004 4.73145 13.1983ZM13.7158 21.7725L20.166 18.0664C20.2881 17.9981 20.3613 17.8662 20.3613 17.7246V13.1494C20.3613 12.8467 20.0391 12.6611 19.7754 12.8076L13.3301 16.5137C13.208 16.582 13.1348 16.7139 13.1348 16.8555V21.4356C13.1299 21.7334 13.457 21.9238 13.7158 21.7725Z" fill="#4E6E5D"/>
<path d="M12.4067 3.61328C12.4922 3.56452 12.6006 3.56452 12.686 3.61328V3.6123L22.9858 9.89551V18.2139C22.9764 18.2137 22.9681 18.2124 22.9604 18.2119V10.7373C22.9604 10.642 22.9548 10.5375 22.9341 10.4355C22.9145 10.3395 22.8739 10.2044 22.7778 10.084C22.6669 9.94514 22.4987 9.84871 22.2964 9.84277C22.1648 9.83891 22.0481 9.87405 21.9536 9.91797L21.8667 9.96387L12.686 15.2197C12.6219 15.2563 12.5448 15.2663 12.4741 15.248L12.4067 15.2197L12.4009 15.2168L2.22119 9.55957L12.4058 3.6123L12.4067 3.61328Z" fill="#4E6E5D" stroke="#4E6E5D"/>
</svg>
