<svg width="21" height="21" viewBox="0 0 21 21" fill="none" xmlns="http://www.w3.org/2000/svg">
<path d="M10.5 1.26001C7.02511 1.26001 4.19995 4.08517 4.19995 7.56001C4.19995 9.68462 5.01042 10.9479 5.77495 11.8256C6.15722 12.2653 6.52636 12.6197 6.77245 12.9413C7.01855 13.2628 7.13995 13.522 7.13995 13.86V18.06C7.13995 18.7507 7.70925 19.32 8.39995 19.32H8.88558C9.07261 20.0419 9.72229 20.58 10.5 20.58C11.2776 20.58 11.9273 20.0419 12.1143 19.32H12.6C13.2907 19.32 13.86 18.7507 13.86 18.06V13.86C13.86 13.3859 13.9994 13.0577 14.2406 12.7181C14.4817 12.3785 14.8443 12.0406 15.225 11.6288C15.9846 10.8035 16.8 9.64524 16.8 7.56001C16.8 4.08517 13.9748 1.26001 10.5 1.26001ZM10.5 2.10001C13.5203 2.10001 15.96 4.53962 15.96 7.56001C15.96 9.43688 15.3053 10.2949 14.595 11.0644C14.2406 11.4499 13.8682 11.7977 13.5581 12.2325C13.248 12.6673 13.02 13.2038 13.02 13.86V15.96H7.97995V13.86C7.97995 13.294 7.73386 12.8264 7.4287 12.4294C7.12354 12.0324 6.75769 11.678 6.40495 11.2744C5.69948 10.4656 5.03995 9.48118 5.03995 7.56001C5.03995 4.53962 7.47956 2.10001 10.5 2.10001ZM8.78058 7.54688C8.76253 7.55017 8.74448 7.55509 8.72808 7.56001C8.57058 7.5879 8.44425 7.70274 8.39995 7.85532C8.35565 8.00954 8.40159 8.1736 8.51808 8.28188L10.08 9.84376V15.12H10.92V9.84376L12.4818 8.28188C12.6492 8.11454 12.6492 7.84548 12.4818 7.67813C12.3145 7.51079 12.0454 7.51079 11.8781 7.67813L10.5 9.05626L9.12183 7.67813C9.03487 7.58462 8.90855 7.53704 8.78058 7.54688ZM7.97995 16.8H13.02V18.06C13.02 18.293 12.8329 18.48 12.6 18.48H9.3187C9.26292 18.4685 9.20386 18.4685 9.14808 18.48H8.39995C8.16698 18.48 7.97995 18.293 7.97995 18.06V16.8ZM9.77808 19.32H11.2218C11.0775 19.571 10.8133 19.74 10.5 19.74C10.1866 19.74 9.92245 19.571 9.77808 19.32Z" fill="#4E6E5D" stroke="#4E6E5D" stroke-width="0.5"/>
</svg>
