<svg width="14" height="19" viewBox="0 0 14 19" fill="none" xmlns="http://www.w3.org/2000/svg">
<path d="M6.99567 18.6346C8.35591 18.6346 9.09945 17.6298 9.09945 16.2139H4.88753C4.88753 17.6298 5.63106 18.6346 6.99567 18.6346ZM2.56069 0.319712C2.45135 0.123317 2.25453 0.00913462 2.05334 0H2.06646H2.01397C1.91338 0 1.80841 0.0319712 1.71218 0.0867789C1.41477 0.264904 1.31417 0.662259 1.48912 0.968269L11.4394 18.6803C11.5531 18.8858 11.7631 19 11.9774 19C12.0823 19 12.1917 18.9726 12.2923 18.9132C12.5897 18.7351 12.6903 18.3377 12.5154 18.0317L2.56069 0.319712ZM8.75392 15.3462L2.75751 4.68149C2.39886 5.60409 2.1758 6.78245 2.1758 8.27139C2.1758 12.4231 0.850555 12.962 0.176997 13.8938C-0.256004 14.4921 0.155128 15.3462 0.872423 15.3462H8.75392ZM13.8231 13.8938C13.1495 12.9666 11.8243 12.4231 11.8243 8.27139C11.8243 4.0101 10.0223 2.29736 8.34279 1.8863C8.18534 1.84519 8.07162 1.79038 8.07162 1.61683V1.48438C8.07162 0.872356 7.59051 0.35625 7.00442 0.360817C6.41834 0.351683 5.93723 0.872356 5.93723 1.48438V1.61683C5.93723 1.78582 5.82351 1.84519 5.66605 1.8863C5.28554 1.97764 4.90065 2.1375 4.53325 2.37957L11.8155 15.3462H13.1233C13.845 15.3462 14.2561 14.4875 13.8231 13.8938Z" fill="#4E6E5D"/>
</svg>
